<?xml version="1.0" encoding="UTF-8"?>
<svg xmlns="http://www.w3.org/2000/svg" width="507" height="139" viewBox="0 0 507 139" fill="none"><path d="M0 76.7414V46.9119C0 39.5789 5.8035 33.5922 12.9136 33.5922H124.859C126.825 33.5922 128.513 32.9175 129.918 31.4674C131.411 30.1181 132.162 28.381 132.162 26.2592C132.162 22.2997 128.608 18.9201 124.859 18.9201H9.07922C4.11832 18.9201 0 14.7713 0 9.55701V9.36468C0 4.15343 4.11832 0.00153824 9.07922 0.00153824H124.111C138.151 0.00153824 150.036 11.3918 150.036 26.2592C150.036 40.6413 138.527 52.5108 124.392 52.5108L144.797 69.3077C146.76 70.9471 147.89 73.0719 148.073 75.679C148.168 76.0668 148.168 76.4514 148.168 76.9338C148.168 79.0586 147.417 80.988 146.012 82.6274C144.425 84.6575 142.364 85.8146 139.84 86.1046C139.556 86.1046 139.183 86.1992 138.899 86.1992C136.842 86.1992 134.876 85.4268 133.099 83.9798L95.0021 52.6085H18.4393V76.7414C18.4393 81.7604 14.1348 86.1992 9.17081 86.1992C6.64609 86.1992 4.49077 85.2345 2.714 83.3997C0.934177 81.565 0 79.3455 0 76.7414Z" fill="black"/><path d="M173.047 43.0589C173.047 22.5925 186.715 0.00739179 208.335 0.00739179H318.22C323.462 0.00739179 327.485 4.0616 327.485 9.46822C327.485 14.8718 323.462 18.926 318.22 18.926H212.548C198.694 18.926 191.111 28.8692 191.111 43.0589C191.111 48.5602 192.234 54.0614 195.232 58.6957C199.35 64.9693 205.34 67.1888 212.548 67.1888H318.22C323.462 67.1888 327.485 71.3407 327.485 76.7473C327.485 82.1509 323.367 86.2051 318.22 86.2051H206.464C190.741 86.2051 179.788 72.8854 175.388 57.9233C173.795 52.8067 173.047 47.8855 173.047 43.0589ZM215.634 33.5981H318.031C323.272 33.5981 327.207 37.6523 327.207 43.0589C327.207 48.4625 323.272 52.6144 318.031 52.6144H215.634C210.393 52.6144 206.464 48.4625 206.464 43.0589C206.464 37.6523 210.393 33.5981 215.634 33.5981Z" fill="black"/><path d="M352.07 76.6496C352.07 71.4353 356.189 67.1888 361.241 67.1888H467.011C481.051 67.1888 488.445 57.441 488.445 43.0589C488.445 29.3515 481.515 18.926 467.011 18.926H361.241C356.002 18.926 352.07 14.8718 352.07 9.46822C352.07 4.0616 356.002 0.00739179 361.241 0.00739179H473.095C494.059 0.00739179 506.509 23.5603 506.509 43.0589C506.509 63.5223 492.746 86.2051 471.224 86.2051H361.241C358.716 86.2051 356.561 85.2404 354.784 83.4056C353.004 81.5708 352.07 79.3514 352.07 76.6496Z" fill="black"/><path d="M361.336 33.7927C366.391 33.7927 370.51 38.0423 370.51 43.2505V76.716C370.51 81.9273 366.391 86.1738 361.336 86.1738C356.189 86.1738 352.07 82.1227 352.07 76.716V43.2505C352.07 39.3917 354.503 35.9175 357.779 34.5651C358.903 34.0797 360.121 33.7927 361.336 33.7927Z" fill="black"/><path d="M106.667 138.461H95.4016C91.4725 138.461 89.1523 135.909 89.1523 131.473V122.919C89.1523 116.663 92.8952 115.961 98.1278 115.961H107.967C112.455 115.961 113.816 117.973 113.816 122.345V122.791H111.402V122.409C111.402 119.313 110.751 118.165 107.595 118.165H98.4025C93.3622 118.165 91.5977 118.8 91.5977 122.824V128.918C91.5977 133.961 91.7809 136.226 95.8381 136.226H106.575C110.474 136.226 111.682 135.686 111.682 132.526V131.345H114.094V132.813C114.094 137.887 110.968 138.461 106.667 138.461Z" fill="black"/><path d="M156.183 138.461H144.826C139.658 138.461 137.832 136.513 137.832 131.281V123.398C137.832 117.845 139.471 115.961 144.826 115.961H156.183C161.534 115.961 163.177 117.845 163.177 123.398V131.281C163.177 136.513 161.351 138.461 156.183 138.461ZM160.732 123.398C160.732 119.091 159.804 118.165 156.183 118.165H144.826C141.205 118.165 140.277 119.091 140.277 123.398V131.281C140.277 135.686 141.669 136.226 144.826 136.226H156.183C159.339 136.226 160.732 135.686 160.732 131.281V123.398Z" fill="black"/><path d="M188.012 138.27V116.121H190.427V136.068H208.838V138.27H188.012Z" fill="black"/><path d="M250.952 138.461H239.596C234.427 138.461 232.602 136.513 232.602 131.281V123.398C232.602 117.845 234.241 115.961 239.596 115.961H250.952C256.307 115.961 257.946 117.845 257.946 123.398V131.281C257.946 136.513 256.121 138.461 250.952 138.461ZM255.501 123.398C255.501 119.091 254.573 118.165 250.952 118.165H239.596C235.975 118.165 235.047 119.091 235.047 123.398V131.281C235.047 135.686 236.439 136.226 239.596 136.226H250.952C254.109 136.226 255.501 135.686 255.501 131.281V123.398Z" fill="black"/><path d="M306.841 138.27C303.468 138.27 303.559 136.099 303.559 133.162V132.207C303.559 129.398 303.312 128.375 300.372 128.375H285.209V138.27H282.797V116.121H301.148C305.293 116.121 306.252 119.058 306.252 121.866C306.252 125.121 305.171 127.099 303.034 127.291V127.386C304.982 127.548 305.974 128.598 305.974 131.599V134.441C305.974 135.302 306.096 136.068 307.427 136.068H307.891V138.27H306.841ZM300.094 118.325H285.209V126.174H299.197C302.662 126.174 303.84 125.951 303.84 122.184C303.84 119.375 303.095 118.325 300.094 118.325Z" fill="black"/><path d="M348.108 138.461H336.843C332.914 138.461 330.594 135.909 330.594 131.473V122.919C330.594 116.663 334.34 115.961 339.569 115.961H349.409C353.896 115.961 355.258 117.973 355.258 122.345V122.791H352.843V122.409C352.843 119.313 352.193 118.165 349.036 118.165H339.847C334.804 118.165 333.039 118.8 333.039 122.824V128.918C333.039 133.961 333.222 136.226 337.28 136.226H348.016C351.918 136.226 353.124 135.686 353.124 132.526V131.345H355.536V132.813C355.536 137.887 352.41 138.461 348.108 138.461Z" fill="black"/><path d="M397.62 138.461H386.264C381.095 138.461 379.27 136.513 379.27 131.281V123.398C379.27 117.845 380.909 115.961 386.264 115.961H397.62C402.972 115.961 404.614 117.845 404.614 123.398V131.281C404.614 136.513 402.789 138.461 397.62 138.461ZM402.169 123.398C402.169 119.091 401.241 118.165 397.62 118.165H386.264C382.643 118.165 381.715 119.091 381.715 123.398V131.281C381.715 135.686 383.107 136.226 386.264 136.226H397.62C400.777 136.226 402.169 135.686 402.169 131.281V123.398Z" fill="black"/><path d="M447.136 138.461H435.779C430.611 138.461 428.785 136.513 428.785 131.281V123.398C428.785 117.845 430.425 115.961 435.779 115.961H447.136C452.488 115.961 454.13 117.845 454.13 123.398V131.281C454.13 136.513 452.304 138.461 447.136 138.461ZM451.685 123.398C451.685 119.091 450.757 118.165 447.136 118.165H435.779C432.159 118.165 431.231 119.091 431.231 123.398V131.281C431.231 135.686 432.623 136.226 435.779 136.226H447.136C450.293 136.226 451.685 135.686 451.685 131.281V123.398Z" fill="black"/><path d="M503.6 138.27C500.226 138.27 500.318 136.099 500.318 133.162V132.237C500.318 129.428 499.64 128.088 496.697 128.088H481.442V138.27H479.027V116.121H481.442V125.887H496.236C499.173 125.887 499.857 124.547 499.857 121.738V121.228C499.857 118.292 499.762 116.121 503.136 116.121H505.117V118.325H503.725C502.394 118.325 502.269 119.088 502.269 119.952V122.92C502.269 125.185 501.466 126.717 499.362 126.812V126.91C501.527 127.069 502.733 128.058 502.733 131.056V134.441C502.733 135.302 502.858 136.068 504.189 136.068H505.581V138.27H503.6Z" fill="black"/></svg>