<?xml version="1.0" encoding="UTF-8"?>
<svg xmlns="http://www.w3.org/2000/svg" width="507" height="87" viewBox="0 0 507 87" fill="none"><path d="M0 76.7414V46.9119C0 39.5789 5.8035 33.5922 12.9136 33.5922H124.859C126.825 33.5922 128.513 32.9175 129.918 31.4674C131.411 30.1181 132.162 28.381 132.162 26.2592C132.162 22.2997 128.608 18.9201 124.859 18.9201H9.07922C4.11832 18.9201 0 14.7713 0 9.55701V9.36468C0 4.15343 4.11832 0.00153824 9.07922 0.00153824H124.111C138.151 0.00153824 150.036 11.3918 150.036 26.2592C150.036 40.6413 138.527 52.5108 124.392 52.5108L144.797 69.3077C146.76 70.9471 147.89 73.0719 148.073 75.679C148.168 76.0668 148.168 76.4514 148.168 76.9338C148.168 79.0586 147.417 80.988 146.012 82.6274C144.425 84.6575 142.364 85.8146 139.84 86.1046C139.556 86.1046 139.183 86.1992 138.899 86.1992C136.842 86.1992 134.876 85.4268 133.099 83.9798L95.0021 52.6085H18.4393V76.7414C18.4393 81.7604 14.1348 86.1992 9.17081 86.1992C6.64609 86.1992 4.49077 85.2345 2.714 83.3997C0.934177 81.565 0 79.3455 0 76.7414Z" fill="white"/><path d="M173.047 43.0589C173.047 22.5925 186.715 0.00739179 208.335 0.00739179H318.22C323.462 0.00739179 327.485 4.0616 327.485 9.46822C327.485 14.8718 323.462 18.926 318.22 18.926H212.548C198.694 18.926 191.111 28.8692 191.111 43.0589C191.111 48.5602 192.234 54.0614 195.232 58.6957C199.35 64.9693 205.34 67.1888 212.548 67.1888H318.22C323.462 67.1888 327.485 71.3407 327.485 76.7473C327.485 82.1509 323.367 86.2051 318.22 86.2051H206.464C190.741 86.2051 179.788 72.8854 175.388 57.9233C173.795 52.8067 173.047 47.8855 173.047 43.0589ZM215.634 33.5981H318.031C323.272 33.5981 327.207 37.6523 327.207 43.0589C327.207 48.4625 323.272 52.6144 318.031 52.6144H215.634C210.393 52.6144 206.464 48.4625 206.464 43.0589C206.464 37.6523 210.393 33.5981 215.634 33.5981Z" fill="white"/><path d="M352.07 76.6496C352.07 71.4353 356.189 67.1888 361.241 67.1888H467.011C481.051 67.1888 488.445 57.441 488.445 43.0589C488.445 29.3515 481.515 18.926 467.011 18.926H361.241C356.002 18.926 352.07 14.8718 352.07 9.46822C352.07 4.0616 356.002 0.00739179 361.241 0.00739179H473.095C494.059 0.00739179 506.509 23.5603 506.509 43.0589C506.509 63.5223 492.746 86.2051 471.224 86.2051H361.241C358.716 86.2051 356.561 85.2404 354.784 83.4056C353.004 81.5708 352.07 79.3514 352.07 76.6496Z" fill="white"/><path d="M361.336 33.7927C366.391 33.7927 370.51 38.0423 370.51 43.2505V76.716C370.51 81.9273 366.391 86.1738 361.336 86.1738C356.189 86.1738 352.07 82.1227 352.07 76.716V43.2505C352.07 39.3917 354.503 35.9175 357.779 34.5651C358.903 34.0797 360.121 33.7927 361.336 33.7927Z" fill="white"/></svg>