<?xml version="1.0" encoding="UTF-8"?>
<svg xmlns="http://www.w3.org/2000/svg" width="507" height="87" viewBox="0 0 507 87" fill="none"><path d="M0 76.7395V46.9099C0 39.5769 5.8035 33.5903 12.9136 33.5903H124.859C126.825 33.5903 128.513 32.9156 129.918 31.4655C131.411 30.1161 132.162 28.379 132.162 26.2573C132.162 22.2977 128.608 18.9182 124.859 18.9182H9.07922C4.11832 18.9182 0 14.7694 0 9.55505V9.36272C0 4.15148 4.11832 -0.000414882 9.07922 -0.000414882H124.111C138.151 -0.000414882 150.036 11.3898 150.036 26.2573C150.036 40.6393 138.527 52.5089 124.392 52.5089L144.797 69.3058C146.76 70.9451 147.89 73.0699 148.073 75.6771C148.168 76.0648 148.168 76.4495 148.168 76.9318C148.168 79.0566 147.417 80.986 146.012 82.6254C144.425 84.6556 142.364 85.8126 139.84 86.1026C139.556 86.1026 139.183 86.1973 138.899 86.1973C136.842 86.1973 134.876 85.4249 133.099 83.9778L95.0021 52.6066H18.4393V76.7395C18.4393 81.7584 14.1348 86.1973 9.17081 86.1973C6.64609 86.1973 4.49077 85.2326 2.714 83.3978C0.934177 81.563 0 79.3436 0 76.7395Z" fill="black"/><path d="M173.047 43.057C173.047 22.5905 186.715 0.00543867 208.335 0.00543867H318.22C323.462 0.00543867 327.485 4.05964 327.485 9.46627C327.485 14.8698 323.462 18.9241 318.22 18.9241H212.548C198.694 18.9241 191.111 28.8672 191.111 43.057C191.111 48.5582 192.234 54.0595 195.232 58.6937C199.35 64.9674 205.34 67.1868 212.548 67.1868H318.22C323.462 67.1868 327.485 71.3387 327.485 76.7453C327.485 82.1489 323.367 86.2031 318.22 86.2031H206.464C190.741 86.2031 179.788 72.8835 175.388 57.9214C173.795 52.8048 173.047 47.8835 173.047 43.057ZM215.634 33.5961H318.031C323.272 33.5961 327.207 37.6503 327.207 43.057C327.207 48.4605 323.272 52.6124 318.031 52.6124H215.634C210.393 52.6124 206.464 48.4605 206.464 43.057C206.464 37.6503 210.393 33.5961 215.634 33.5961Z" fill="black"/><path d="M352.07 76.6477C352.07 71.4334 356.189 67.1868 361.241 67.1868H467.011C481.051 67.1868 488.445 57.439 488.445 43.057C488.445 29.3496 481.515 18.924 467.011 18.924H361.241C356.002 18.924 352.07 14.8698 352.07 9.46627C352.07 4.05964 356.002 0.00543867 361.241 0.00543867H473.095C494.059 0.00543867 506.509 23.5583 506.509 43.057C506.509 63.5203 492.746 86.2031 471.224 86.2031H361.241C358.716 86.2031 356.561 85.2384 354.784 83.4036C353.004 81.5689 352.07 79.3494 352.07 76.6477Z" fill="black"/><path d="M361.336 33.7927C366.391 33.7927 370.51 38.0423 370.51 43.2505V76.716C370.51 81.9273 366.391 86.1738 361.336 86.1738C356.189 86.1738 352.07 82.1227 352.07 76.716V43.2505C352.07 39.3917 354.503 35.9175 357.779 34.5651C358.903 34.0797 360.121 33.7927 361.336 33.7927Z" fill="black"/></svg>